<?xml version="1.0" encoding="UTF-8"?>
<svg version="1.1" xmlns="http://www.w3.org/2000/svg" width="512" height="512">
<path d="M0 0 C8.5422804 5.82864737 11.55492978 21.05521255 14.97338867 30.34716797 C15.99974738 33.12431646 17.04934729 35.89197423 18.09960938 38.66015625 C18.76186575 40.44998532 19.42272112 42.24033354 20.08203125 44.03125 C20.39445267 44.84509155 20.70687408 45.65893311 21.02876282 46.49743652 C23.49812052 53.34329155 24.82075761 60.65303748 21.6875 67.5 C19.08991736 71.38260585 15.57477133 73.24214525 11.1875 74.625 C5.93679138 75.25870621 2.61572521 74.51297296 -1.8125 71.625 C-5.07238821 68.36511179 -6.91124873 65.74348698 -8.45703125 61.41796875 C-8.71460205 60.70535889 -8.97217285 59.99274902 -9.23754883 59.25854492 C-9.42728271 58.7194751 -9.6170166 58.18040527 -9.8125 57.625 C-16.68114127 69.49293321 -23.37918667 81.43648566 -29.87036133 93.51513672 C-33.7143562 100.64930624 -37.67231707 107.71095855 -41.6875 114.75 C-46.34320817 122.91789693 -50.7670118 131.13683021 -54.8125 139.625 C-50.3048682 144.85569902 -45.68116518 149.97343451 -41.00708008 155.05517578 C-37.31472124 159.07116013 -33.65436634 163.11458887 -30.01171875 167.17578125 C-28.47677235 168.88521534 -26.93734884 170.59063528 -25.39453125 172.29296875 C-24.60433594 173.16566406 -23.81414062 174.03835937 -23 174.9375 C-21.93845703 176.10732422 -21.93845703 176.10732422 -20.85546875 177.30078125 C-18.76080256 179.68381449 -16.77538965 182.1327918 -14.8125 184.625 C-14.78671875 183.75617188 -14.7609375 182.88734375 -14.734375 181.9921875 C-14.15405985 170.20123876 -14.15405985 170.20123876 -9.8125 165.625 C-5.4813994 161.70638517 -1.93782116 160.97761612 3.72265625 161.25 C8.25560437 161.93964029 11.57025887 163.45933548 14.35668945 167.19067383 C17.73862781 173.33525308 17.6866574 178.91821869 17.5 185.8125 C17.48163086 186.97491211 17.46326172 188.13732422 17.44433594 189.33496094 C17.40009304 191.81058208 17.34561628 194.28603814 17.28173828 196.76123047 C17.18550519 200.70678719 17.13565964 204.65122039 17.08984375 208.59765625 C17.04147453 211.19015029 16.99075603 213.78260174 16.9375 216.375 C16.92372314 217.59340576 16.90994629 218.81181152 16.89575195 220.06713867 C16.70740922 226.69540782 16.53208747 231.45023658 12.1875 236.625 C6.47944658 241.03085173 0.64865873 241.15652656 -6.3125 240.9375 C-7.32626709 240.91913086 -8.34003418 240.90076172 -9.38452148 240.88183594 C-11.62357957 240.83700459 -13.86245573 240.78231135 -16.10107422 240.71923828 C-19.42971549 240.63471943 -22.75586552 240.58579627 -26.0852356 240.55192566 C-28.97085099 240.51921717 -31.85595133 240.46788369 -34.74121094 240.41244507 C-36.15306831 240.38766891 -37.56503755 240.36855845 -38.97705078 240.3553772 C-53.09332386 240.20362308 -53.09332386 240.20362308 -58.8125 235.625 C-62.22647924 231.79264096 -63.1256828 227.54404189 -62.875 222.5 C-62.08901667 217.43390944 -60.63692613 215.03372763 -56.8125 211.625 C-50.59911364 207.87107908 -43.93985018 207.93581677 -36.8125 207.625 C-37.23023682 207.18220703 -37.64797363 206.73941406 -38.07836914 206.28320312 C-40.01205151 204.23185083 -41.94353149 202.17843683 -43.875 200.125 C-44.53177734 199.42890625 -45.18855469 198.7328125 -45.86523438 198.015625 C-49.70606547 193.92882935 -53.4583072 189.78287811 -57.13598633 185.54882812 C-59.75970766 182.538063 -62.43307662 179.57477045 -65.125 176.625 C-65.64900391 176.04105469 -66.17300781 175.45710937 -66.71289062 174.85546875 C-68.03809308 173.40639974 -69.42081825 172.01034633 -70.8125 170.625 C-71.4725 170.625 -72.1325 170.625 -72.8125 170.625 C-73.30109497 171.53487671 -73.30109497 171.53487671 -73.79956055 172.46313477 C-79.80732194 183.63717275 -85.85516758 194.78296516 -92.125 205.8125 C-97.01979932 214.42493439 -101.84551729 223.07322714 -106.625 231.75 C-106.95672211 232.35199219 -107.28844421 232.95398438 -107.63021851 233.57421875 C-111.11864867 239.90571158 -114.60138841 246.24032603 -118.08201599 252.57611084 C-119.52029348 255.19330594 -120.96003182 257.80969581 -122.3999939 260.42596436 C-123.40462729 262.25272634 -124.40707107 264.08067735 -125.40942383 265.90869141 C-137.18874616 287.31312308 -137.18874616 287.31312308 -143.8125 290.625 C-154.70076793 292.73593422 -164.52471398 287.06502289 -174.1875 282.8125 C-176.06603915 282.00305752 -177.94545173 281.19563942 -179.82568359 280.39013672 C-183.78024636 278.69355851 -187.73033216 276.98709459 -191.67773438 275.27392578 C-197.87772092 272.58899281 -204.09968301 269.95797743 -210.328125 267.33984375 C-211.34697784 266.91146713 -212.36583069 266.48309052 -213.41555786 266.04173279 C-215.4356014 265.1926697 -217.45571153 264.34376499 -219.47589111 263.49502563 C-224.18656744 261.51471257 -228.89466129 259.52832947 -233.6015625 257.5390625 C-234.40297668 257.20120224 -235.20439087 256.86334198 -236.03009033 256.51524353 C-241.31851325 254.27918419 -246.5731642 251.9737147 -251.8125 249.625 C-252.11399963 250.24365936 -252.41549927 250.86231873 -252.72613525 251.49972534 C-253.8948642 253.78613055 -255.25271445 255.70693016 -256.796875 257.7578125 C-257.395 258.55445313 -257.993125 259.35109375 -258.609375 260.171875 C-259.25390625 261.02265625 -259.8984375 261.8734375 -260.5625 262.75 C-261.56796875 264.08417969 -261.56796875 264.08417969 -262.59375 265.4453125 C-267.51408362 271.95643067 -272.51051546 278.40559014 -277.54003906 284.83251953 C-281.86949679 290.37728493 -286.10557301 295.98685043 -290.3125 301.625 C-295.63878861 308.76332494 -301.05362656 315.82246644 -306.54296875 322.8359375 C-311.51424655 329.20364165 -316.35647007 335.66309611 -321.18725586 342.13769531 C-326.0692585 348.66741365 -331.04249891 355.12107004 -336.0703125 361.5390625 C-336.60527344 362.22226562 -337.14023437 362.90546875 -337.69140625 363.609375 C-338.21105957 364.27001953 -338.73071289 364.93066406 -339.26611328 365.61132812 C-340.32633923 366.99193179 -341.36011443 368.39313607 -342.37060547 369.81054688 C-347.36281813 376.79359729 -347.36281813 376.79359729 -351.8125 378.625 C-357.36058604 379.45385269 -362.28390883 379.3490695 -367.375 376.9375 C-371.34293297 373.17305077 -373.29746734 369.67938476 -373.625 364.1875 C-373.38586909 356.33444082 -369.13002577 351.39532097 -364.39111328 345.5703125 C-362.75011414 343.54812241 -361.15085896 341.49824502 -359.55859375 339.4375 C-357.22315682 336.41576354 -354.87547453 333.40420897 -352.51953125 330.3984375 C-348.71556135 325.52444378 -345.00835079 320.58122453 -341.3125 315.625 C-335.98644366 308.48650489 -330.57136941 301.42752841 -325.08203125 294.4140625 C-320.75390193 288.87016652 -316.51853056 283.26194818 -312.3125 277.625 C-306.98999101 270.49174052 -301.58056328 263.43632942 -296.09301758 256.42944336 C-291.64936339 250.74018618 -287.31424791 244.97528765 -283 239.1875 C-266.08485464 216.56700356 -266.08485464 216.56700356 -259.73193359 215.16625977 C-249.57290594 214.2731259 -240.35633764 219.51865689 -231.3125 223.5 C-229.42880635 224.31144011 -227.54418549 225.12073081 -225.65869141 225.92797852 C-221.71960203 227.61655945 -217.7847129 229.31442284 -213.85253906 231.01904297 C-204.93347005 234.87749486 -195.97057683 238.63136781 -187.00561523 242.38165283 C-184.23943454 243.54073838 -181.47593576 244.70602136 -178.71289062 245.87255859 C-177.00397198 246.59097668 -175.29499084 247.30924614 -173.5859375 248.02734375 C-172.82828094 248.34848648 -172.07062439 248.66962921 -171.29000854 249.00050354 C-166.20579394 251.129024 -161.06305828 252.94965644 -155.8125 254.625 C-155.42618408 253.89724365 -155.03986816 253.1694873 -154.6418457 252.41967773 C-147.50734317 238.99653203 -140.31672628 225.62083381 -132.79345703 212.41040039 C-127.78279259 203.60421449 -122.87523721 194.74285241 -118.00244141 185.85986328 C-117.32986689 184.63437737 -116.6571774 183.40895456 -115.984375 182.18359375 C-115.64848358 181.57183289 -115.31259216 180.96007202 -114.96652222 180.32977295 C-112.79145181 176.37778018 -110.58692073 172.44356647 -108.36247253 168.51916504 C-106.84906804 165.84766619 -105.34450183 163.17123809 -103.84048462 160.4944458 C-103.11796929 159.21440899 -102.39110688 157.93681544 -101.65975952 156.6618042 C-100.64627679 154.89408478 -99.64891149 153.11715406 -98.65234375 151.33984375 C-98.07863037 150.33042725 -97.50491699 149.32101074 -96.91381836 148.28100586 C-95.63532044 145.76651505 -95.63532044 145.76651505 -95.98461914 143.44799805 C-97.42067623 140.2857927 -99.9278438 137.96892738 -102.3125 135.5 C-103.41328281 134.33512884 -104.51353879 133.16975964 -105.61328125 132.00390625 C-106.15807129 131.43043457 -106.70286133 130.85696289 -107.26416016 130.26611328 C-109.38031676 128.02316079 -111.4430453 125.73473613 -113.5 123.4375 C-114.57701172 122.23673828 -114.57701172 122.23673828 -115.67578125 121.01171875 C-116.38089844 120.22410156 -117.08601562 119.43648438 -117.8125 118.625 C-122.6572128 113.22161762 -127.52484428 107.84159155 -132.4375 102.5 C-138.39846406 96.0128267 -144.20599229 89.42076692 -149.8125 82.625 C-152.93401233 83.21928956 -154.78334717 84.14587369 -157.2109375 86.1796875 C-157.84773437 86.70626953 -158.48453125 87.23285156 -159.140625 87.77539062 C-159.81609375 88.34451172 -160.4915625 88.91363281 -161.1875 89.5 C-162.63199294 90.69630279 -164.07731983 91.89159924 -165.5234375 93.0859375 C-166.6077002 93.9845752 -166.6077002 93.9845752 -167.71386719 94.90136719 C-170.70759251 97.36015043 -173.75494636 99.74641157 -176.8125 102.125 C-181.88569064 106.0832356 -186.89235268 110.11596533 -191.875 114.1875 C-197.66104446 118.91350578 -203.52737169 123.50168436 -209.46875 128.03125 C-213.31138141 130.98712031 -217.0597261 134.05641135 -220.8125 137.125 C-225.75123324 141.15730544 -230.70702531 145.16098904 -235.75 149.0625 C-236.70777344 149.80371094 -237.66554687 150.54492188 -238.65234375 151.30859375 C-239.69519531 152.07300781 -240.73804688 152.83742187 -241.8125 153.625 C-242.4480695 154.10357264 -243.08363899 154.58214527 -243.73846817 155.07522011 C-249.28649477 159.04785234 -254.14127482 160.89205078 -260.80761719 162.14208984 C-261.76340668 162.33803741 -262.71919617 162.53398499 -263.70394897 162.73587036 C-266.83547225 163.372425 -269.97183081 163.97981907 -273.109375 164.5859375 C-275.30767419 165.0243614 -277.50568866 165.46421512 -279.70343018 165.90542603 C-284.30053604 166.82382194 -288.90007149 167.72840773 -293.50195312 168.62255859 C-299.3712286 169.76358654 -305.23431534 170.9333074 -311.09595871 172.11284447 C-315.63250303 173.02334782 -320.17148675 173.92115567 -324.71134186 174.814991 C-326.87271106 175.24154607 -329.03344949 175.67131132 -331.19350433 176.10447311 C-359.31291997 181.71963208 -359.31291997 181.71963208 -367.4375 177.9375 C-370.64325326 174.81610867 -372.57569472 172.21010199 -373.24609375 167.72265625 C-373.25400672 161.57428199 -373.2590054 157.31185704 -368.8125 152.625 C-364.82465747 149.78134502 -360.86478337 148.76613037 -356.12670898 147.87915039 C-355.36806549 147.72908035 -354.609422 147.57901031 -353.82778931 147.4243927 C-351.3230918 146.93128813 -348.8159647 146.45196439 -346.30859375 145.97265625 C-344.54744444 145.62866188 -342.78646572 145.28379307 -341.02565002 144.93809509 C-336.38087406 144.02856732 -331.73393357 143.13061758 -327.08642578 142.23516846 C-322.42936523 141.33596454 -317.77431042 140.42651062 -313.11914062 139.51757812 C-307.0316372 138.32957928 -300.94367153 137.14413353 -294.85377598 135.9684515 C-293.255952 135.65861833 -291.65860176 135.346331 -290.061759 135.03147984 C-285.84616642 134.20125571 -281.62793094 133.41321757 -277.39431763 132.67990112 C-276.49704736 132.51751922 -275.59977709 132.35513731 -274.67531681 132.18783474 C-272.96654694 131.8786406 -271.25517889 131.58333089 -269.54110622 131.30503178 C-261.57323637 129.82850211 -256.90881289 125.64294782 -251.31152344 120.05664062 C-248.87692415 117.73147935 -246.19286353 115.76470963 -243.5 113.75 C-238.59923478 110.04121251 -233.81493002 106.2092149 -229.0625 102.3125 C-223.5820912 97.82331315 -218.02476379 93.46136409 -212.375 89.1875 C-206.51539785 84.75097289 -200.78124955 80.19306154 -195.125 75.5 C-184.96507799 67.07038553 -174.61052322 58.93850778 -164.0625 51 C-163.37019287 50.47841309 -162.67788574 49.95682617 -161.96459961 49.41943359 C-157.48185706 46.06481703 -155.13662362 44.45718354 -149.5625 44.3125 C-148.62921875 44.27511719 -147.6959375 44.23773438 -146.734375 44.19921875 C-139.34709174 45.27570789 -134.66898028 51.65922202 -129.875 56.875 C-128.85889648 57.96361328 -128.85889648 57.96361328 -127.82226562 59.07421875 C-123.94466694 63.24551858 -120.15923144 67.48748235 -116.42260742 71.78515625 C-114.13658325 74.39735915 -111.79113941 76.94845697 -109.4375 79.5 C-104.52329711 84.8402019 -99.65968296 90.22385327 -94.8125 95.625 C-94.049375 96.470625 -93.28625 97.31625 -92.5 98.1875 C-87.89159015 103.29411632 -83.32358925 108.43217057 -78.8125 113.625 C-76.49130432 110.66961201 -74.61582013 107.63625138 -72.80078125 104.34765625 C-71.92280884 102.76210937 -71.92280884 102.76210937 -71.02709961 101.14453125 C-70.0855603 99.43330078 -70.0855603 99.43330078 -69.125 97.6875 C-68.46453046 96.49204582 -67.80379976 95.2967359 -67.14282227 94.1015625 C-65.74936324 91.58056554 -64.35780513 89.05853284 -62.96777344 86.53564453 C-60.80727581 82.61441866 -58.64214786 78.6957614 -56.4765625 74.77734375 C-50.56309257 64.07375603 -44.65703273 53.36645016 -38.8125 42.625 C-39.48772705 42.85558105 -40.1629541 43.08616211 -40.85864258 43.32373047 C-47.87625697 45.67511489 -54.01734396 46.98552764 -61.125 44.4375 C-64.64020834 42.0667781 -66.91890381 39.41219238 -68.8125 35.625 C-69.41522355 30.22024951 -69.58850775 24.81595283 -66.31567383 20.24609375 C-59.61606724 13.02092114 -46.14171376 10.1690645 -37.09033203 6.83911133 C-34.31318354 5.81275262 -31.54552577 4.76315271 -28.77734375 3.71289062 C-26.98751468 3.05063425 -25.19716646 2.38977888 -23.40625 1.73046875 C-22.59240845 1.41804733 -21.77856689 1.10562592 -20.94006348 0.78373718 C-14.13886977 -1.6695108 -6.85624532 -2.95490529 0 0 Z " fill="#fff" transform="translate(462.8125,64.375)"/>
<path d="M0 0 C4.60099758 2.17941991 6.78238122 4.47619612 9 9 C9.36076355 12.25874329 9.36076355 12.25874329 9.34057617 15.9934082 C9.34123329 17.01862831 9.34123329 17.01862831 9.34190369 18.06455994 C9.3398236 20.3102637 9.31653077 22.55520887 9.29296875 24.80078125 C9.28736999 26.36304822 9.28310121 27.92532047 9.28010559 29.4875946 C9.26867879 33.58943349 9.23923055 37.69095116 9.20599365 41.79266357 C9.17524588 45.98217423 9.16159022 50.17173704 9.14648438 54.36132812 C9.11435851 62.57436578 9.06318868 70.78714287 9 79 C9.57443848 78.98428955 10.14887695 78.9685791 10.74072266 78.95239258 C13.36871309 78.88964487 15.99654537 78.85088494 18.625 78.8125 C19.52863281 78.78736328 20.43226562 78.76222656 21.36328125 78.73632812 C26.68615504 78.67804848 30.41531745 78.97224407 35 82 C39.66930962 87.17409985 40.36287625 90.39621709 40.2734375 97.23828125 C39.88380138 101.17360604 38.71351411 103.14733132 36 106 C29 110 29 110 9 110 C9 144.32 9 178.64 9 214 C16.26 214 23.52 214 31 214 C38.13422347 218.75614898 38.13422347 218.75614898 40 223 C40.82885269 228.54808604 40.7240695 233.47140883 38.3125 238.5625 C36 241 36 241 31 244 C23.74 244 16.48 244 9 244 C9 278.65 9 313.3 9 349 C16.26 349 23.52 349 31 349 C38.13422347 353.75614898 38.13422347 353.75614898 40 358 C40.82885269 363.54808604 40.7240695 368.47140883 38.3125 373.5625 C35.28194528 376.75686849 33.07287467 378.79991557 28.53393555 379.23803711 C25.57957585 379.29528721 22.64144965 379.261207 19.6875 379.1875 C18.66076172 379.17396484 17.63402344 379.16042969 16.57617188 379.14648438 C14.05024091 379.11123883 11.5253934 379.061967 9 379 C9.10742152 391.72585555 9.22003864 404.45165339 9.33933926 417.17740345 C9.39456745 423.08610465 9.44798736 428.99481081 9.49731445 434.90356445 C9.54495942 440.60293136 9.5973024 446.30223732 9.65294075 452.0015316 C9.67336368 454.17887548 9.69207686 456.35623607 9.70907402 458.53360939 C9.73311929 461.57691124 9.76317386 464.6200976 9.79467773 467.66333008 C9.80331093 469.0217099 9.80331093 469.0217099 9.81211853 470.40753174 C9.82190735 471.23624283 9.83169617 472.06495392 9.84178162 472.91877747 C9.84823417 473.63869779 9.85468672 474.35861811 9.8613348 475.10035419 C9.9379833 477.22448821 9.9379833 477.22448821 11 480 C14.61166106 481.20388702 17.90240947 481.13847629 21.66131306 481.12749195 C22.4531359 481.12913578 23.24495873 481.13077962 24.0607762 481.13247326 C26.73636112 481.13681381 29.41189223 481.13400522 32.08747864 481.13130188 C34.01619865 481.13300303 35.94491831 481.13515226 37.87363738 481.13771313 C42.07861561 481.14231996 46.28357911 481.14372909 50.48855972 481.14274788 C57.32929821 481.1411586 64.17002202 481.14634965 71.01075745 481.15237427 C80.94233508 481.16049563 90.87391015 481.16543395 100.80549049 481.16866493 C116.49669607 481.17415477 132.18787982 481.19104509 147.8790741 481.21000671 C150.55004351 481.21317167 153.22101294 481.2163295 155.89198238 481.21947271 C156.88904768 481.22064669 156.88904768 481.22064669 157.90625572 481.22184439 C159.25324948 481.22342998 160.60024324 481.2250148 161.94723701 481.22659888 C163.29922408 481.22819016 164.65121115 481.2297844 166.00319822 481.23138161 C181.95143062 481.2502169 197.89966456 481.26730091 213.84790039 481.28295898 C214.89483014 481.28399236 214.89483014 481.28399236 215.96290999 481.28504662 C238.59976811 481.30731291 261.23661964 481.31914807 283.87348696 481.32662554 C307.79903757 481.33460692 331.72453417 481.35755205 355.65005702 481.3952834 C369.98314156 481.41733892 384.31612734 481.42696372 398.649228 481.42078307 C408.46785342 481.41761432 418.28639434 481.42889992 428.10499362 481.45167748 C433.77453904 481.46437549 439.4438963 481.47047866 445.1134491 481.45926094 C450.30051527 481.44912947 455.48721533 481.45726494 460.67423805 481.4801239 C462.55377944 481.48513847 464.43335342 481.48335195 466.31287918 481.47419123 C468.86275139 481.46273749 471.41136502 481.47575616 473.96116352 481.49498463 C474.69537756 481.48579507 475.42959161 481.47660551 476.18605456 481.46713749 C481.24187211 481.54233164 484.09691638 482.8376857 488 486 C492.05630398 491.22259857 491.77397544 496.65340142 491 503 C488.82402963 507.59371522 486.54002548 509.82093487 482 512 C479.24723946 512.28261967 476.72535986 512.40334015 473.97603226 512.37752342 C473.16929353 512.38188374 472.3625548 512.38624407 471.53136945 512.39073652 C468.81690645 512.40172084 466.10294841 512.39125596 463.38848877 512.38095093 C461.4271801 512.38440625 459.46587337 512.38916997 457.50457072 512.39513266 C452.10604127 512.40768993 446.70767033 512.40145075 441.30914021 512.39217401 C435.49031293 512.385403 429.67151345 512.39585517 423.85269165 512.40411377 C412.44893312 512.41747515 401.04523372 512.41456237 389.64147285 512.40587585 C380.37345203 512.39910783 371.10544781 512.39817876 361.83742523 512.4014473 C360.51962924 512.401907 359.20183324 512.40236669 357.84410404 512.40284032 C355.83828166 512.40355413 353.83245928 512.40427777 351.82663692 512.405021 C326.75097948 512.41420172 301.67535431 512.4058725 276.59970185 512.38973031 C254.32426309 512.37549972 232.0488758 512.37676138 209.7734375 512.39111328 C184.74999411 512.40718178 159.72657927 512.41354402 134.70313144 512.40427649 C132.03470024 512.40331434 129.36626904 512.40237772 126.69783783 512.4014473 C125.38486269 512.40098447 124.07188755 512.40052164 122.71912529 512.40004479 C113.46341099 512.39745376 104.20771495 512.40182849 94.95200348 512.40888596 C83.67035432 512.41729887 72.38876778 512.4150254 61.10712579 512.39904372 C55.35013351 512.39115731 49.59324564 512.38807574 43.83625412 512.39799118 C38.56590509 512.40693113 33.29575726 512.40201653 28.02542648 512.38605852 C26.11897014 512.38270771 24.21249681 512.38441154 22.3060514 512.39168589 C19.71290407 512.40082128 17.12044398 512.39143859 14.52733231 512.37752342 C13.4194382 512.38805867 13.4194382 512.38805867 12.2891624 512.39880675 C2.6072027 512.29511081 -5.11021107 508.72664274 -12 502 C-18.35337526 494.35174635 -21.312399 487.85809986 -21.25726891 477.82898712 C-21.26077498 477.01850739 -21.26428105 476.20802765 -21.26789337 475.37298793 C-21.27721152 472.65195132 -21.27228299 469.93112854 -21.26742554 467.21008301 C-21.27116157 465.24164928 -21.2757629 463.27321704 -21.28115618 461.30478716 C-21.29340705 455.89135926 -21.29312326 450.47799306 -21.29076743 445.06455445 C-21.2903598 439.22808008 -21.30139312 433.39162564 -21.31088257 427.55516052 C-21.32750405 416.11980847 -21.3329926 404.68447704 -21.33410732 393.24911392 C-21.33505708 383.95725643 -21.33916372 374.66540575 -21.34550858 365.37355042 C-21.34730364 362.69929076 -21.34908327 360.0250311 -21.35085833 357.35077143 C-21.35152148 356.35354966 -21.35152148 356.35354966 -21.35219802 355.336182 C-21.36450588 336.63707312 -21.37239918 317.93796656 -21.37151146 299.23885345 C-21.37146472 298.18138805 -21.37146472 298.18138805 -21.37141704 297.1025597 C-21.37125083 293.52939843 -21.37105274 289.95623716 -21.37084763 286.38307589 C-21.37080774 285.6734249 -21.37076785 284.9637739 -21.37072675 284.23261832 C-21.37064587 282.79753224 -21.37056228 281.36244615 -21.37047596 279.92736007 C-21.36925 257.59135856 -21.38427229 235.25541774 -21.41162109 212.91943359 C-21.44232937 187.82935862 -21.45955442 162.73932353 -21.45769465 137.64922857 C-21.45695305 124.36260989 -21.46256386 111.07604833 -21.48405075 97.78944397 C-21.5022229 86.47991178 -21.50664244 75.1704791 -21.4930319 63.86093867 C-21.48648273 58.08807438 -21.48645534 52.3154012 -21.5037384 46.54255486 C-21.51938768 41.26125576 -21.51668923 35.9803006 -21.49917014 30.69901031 C-21.49608226 28.78523135 -21.49979934 26.87142722 -21.51089029 24.9576779 C-21.52494242 22.36170279 -21.51447999 19.7669457 -21.49777794 17.17101288 C-21.5077143 16.42321727 -21.51765066 15.67542166 -21.52788812 14.90496558 C-21.45828626 9.80888232 -20.196377 6.9318131 -17 3 C-11.77740143 -1.05630398 -6.34659858 -0.77397544 0 0 Z " fill="#fff" transform="translate(21,0)"/>
</svg>
