<?xml version="1.0" encoding="UTF-8"?>
<svg version="1.1" xmlns="http://www.w3.org/2000/svg" width="512" height="512">
<path d="M0 0 C0.71436816 -0.00235223 1.42873632 -0.00470446 2.16475201 -0.00712797 C4.56487977 -0.01379902 6.96495317 -0.01336032 9.36508942 -0.01294994 C11.10080628 -0.01624975 12.83652237 -0.01997557 14.57223749 -0.02409142 C19.34730807 -0.0341063 24.12236608 -0.0378274 28.89744568 -0.04048073 C34.04558089 -0.04438531 39.19370616 -0.05396356 44.34183502 -0.0626936 C56.77744374 -0.08245386 69.21305328 -0.09252376 81.64867377 -0.10142139 C87.50562833 -0.10580508 93.36258198 -0.11117169 99.21953583 -0.11641026 C118.69087028 -0.13342225 138.16220418 -0.14791621 157.63354492 -0.155159 C162.68619029 -0.15706887 167.73883566 -0.15898921 172.79148102 -0.16094494 C174.67518385 -0.16167055 174.67518385 -0.16167055 176.59694129 -0.16241082 C196.93802799 -0.17071031 217.27905587 -0.19604602 237.62011689 -0.22852562 C258.50635834 -0.26160368 279.3925699 -0.27960845 300.27883768 -0.28280324 C312.00466211 -0.28496766 323.73040076 -0.29370644 335.45619965 -0.31926441 C345.44290949 -0.34098159 355.42951272 -0.34901678 365.41624349 -0.33929763 C370.50949229 -0.3347559 375.60252117 -0.33663196 380.69573975 -0.35605907 C385.364346 -0.37371239 390.03257225 -0.37267538 394.70118266 -0.35716178 C396.38429973 -0.35478901 398.06744325 -0.359092 399.75051993 -0.37099043 C417.93801817 -0.49153493 432.0681552 4.07661364 445.50632477 16.64984608 C453.98575685 25.71357516 459.9344801 37.76600052 459.96755791 50.2990675 C459.97263245 51.32389056 459.97770699 52.34871361 459.98293531 53.40459192 C459.98368195 55.08330611 459.98368195 55.08330611 459.98444366 56.79593372 C459.98882592 57.99018675 459.99320817 59.18443979 459.99772322 60.4148823 C460.00876924 63.72670085 460.01532987 67.03847232 460.01990438 70.35030246 C460.02587258 73.92382331 460.03747952 77.49732689 460.04819489 81.07083607 C460.07269353 89.7007064 460.08734361 98.33058243 460.10025495 106.96047682 C460.10396915 109.39986437 460.10794221 111.83925137 460.11200762 114.27863836 C460.13724966 129.44115824 460.15929326 144.60367907 460.17173576 159.76621532 C460.17466526 163.27674202 460.17762694 166.78726868 460.18064117 170.2977953 C460.18138722 171.17027387 460.18213328 172.04275245 460.18290193 172.94166978 C460.19554299 187.06064048 460.22875051 201.1794849 460.27044301 215.29839663 C460.3129395 229.80911741 460.3364398 244.31977369 460.34165633 258.83055651 C460.34506202 266.97162232 460.35671722 275.11249087 460.38975906 283.25349522 C460.41786719 290.19012022 460.4287121 297.12650751 460.4175636 304.06318502 C460.41240398 307.59733314 460.41508536 311.13098434 460.44002914 314.66505909 C460.58592415 336.53515261 459.06574927 352.22767058 443.64304352 368.82172108 C432.78132489 379.27635655 419.53696838 384.25084095 404.62895012 384.26564884 C403.92325876 384.26770148 403.2175674 384.26975411 402.49049145 384.27186894 C400.12590903 384.2775232 397.76138515 384.27608364 395.39679718 384.27466297 C393.68425353 384.27724751 391.97171048 384.28026092 390.25916827 384.28366637 C385.552834 384.2917292 380.84651499 384.29352555 376.14017463 384.29426384 C371.06433437 384.29611564 365.98850201 384.30366363 360.91266632 384.31039906 C349.8133974 384.32397784 338.71413209 384.3300064 327.61485624 384.33440971 C320.68351255 384.33717292 313.75217024 384.34141042 306.82082748 384.34591389 C287.62738826 384.35810599 268.43395014 384.3684054 249.24050713 384.37178898 C248.01221032 384.37200854 246.78391351 384.37222811 245.51839558 384.37245433 C244.28717133 384.37267261 243.05594708 384.37289089 241.787413 384.37311578 C239.2925125 384.37355924 236.79761199 384.37400581 234.30271149 384.37445545 C233.06515648 384.37467688 231.82760147 384.37489831 230.55254479 384.37512645 C210.50185116 384.37907407 190.45119388 384.39652726 170.40051429 384.41981497 C149.81143901 384.44353485 129.22238196 384.45599112 108.63329279 384.4571569 C97.07464723 384.4580733 85.51604904 384.46381694 73.95741653 384.48197651 C64.11454285 384.49738605 54.27173117 384.50249289 44.42884772 384.49423841 C39.40866209 384.49033495 34.38860131 384.49124672 29.36843109 384.50529575 C24.76781832 384.51805268 20.16742395 384.5168214 15.5668114 384.50470504 C13.90729757 384.50275115 12.24776817 384.50581216 10.58827619 384.5145494 C-7.41279379 384.60328346 -22.62863646 381.1759083 -35.98586273 368.35297108 C-36.70644867 367.62078358 -37.42703461 366.88859608 -38.16945648 366.13422108 C-38.75597992 365.54640858 -39.34250336 364.95859608 -39.94680023 364.35297108 C-49.60647552 353.93133667 -52.63212666 340.6571395 -52.55713654 326.8577776 C-52.56521484 325.05787317 -52.56521484 325.05787317 -52.57345635 323.22160703 C-52.58522632 319.91705926 -52.58369392 316.61302027 -52.57628953 313.30849349 C-52.57153837 309.73440338 -52.58408493 306.16036612 -52.59430695 302.58629322 C-52.61146297 295.59417611 -52.61234152 288.60214899 -52.60709404 281.61001631 C-52.60304471 275.92338143 -52.60450495 270.23677305 -52.6098423 264.55013943 C-52.61059072 263.73929152 -52.61133914 262.92844361 -52.61211025 262.09302456 C-52.6136418 260.4455164 -52.61518015 258.79800824 -52.61672521 257.1505001 C-52.63043899 241.71587952 -52.62502074 226.28130969 -52.61354 210.84669027 C-52.60361143 196.74609713 -52.61654376 182.64563528 -52.64047419 168.54506239 C-52.66489521 154.04548027 -52.67446553 139.54595923 -52.66782147 125.04635698 C-52.66433557 116.91441932 -52.66651945 108.78258256 -52.68407249 100.65066051 C-52.6988322 93.72727808 -52.69938106 86.80406759 -52.68200158 79.88068839 C-52.67351954 76.35291153 -52.67127268 72.82544131 -52.68665314 69.29768085 C-52.69989672 65.46203935 -52.68828394 61.62722219 -52.67066193 57.79161549 C-52.68026693 56.69236482 -52.68987194 55.59311416 -52.69976801 54.46055287 C-52.55132714 38.67257861 -46.31142978 25.84919506 -35.65383148 14.45843983 C-25.74577226 5.18910769 -13.49881755 0.01896604 0 0 Z M-15.16945648 38.13422108 C-21.80949572 45.80823236 -22.48336831 55.21166429 -22.36476898 64.98187733 C-22.36193909 65.87918064 -22.35910919 66.77648396 -22.35619354 67.70097828 C-22.34510627 70.53303521 -22.32002395 73.36476168 -22.29445648 76.19672108 C-22.28441185 78.13096126 -22.27528861 80.06520646 -22.26711273 81.99945545 C-22.24520462 86.71116898 -22.21075549 91.42263924 -22.16945648 96.13422108 C-21.24834076 96.14356678 -20.32722504 96.15291248 -19.37819672 96.16254139 C-15.88302657 96.20717455 -12.38896859 96.26905231 -8.89431 96.34174061 C-7.39637201 96.36956014 -5.89829786 96.39096349 -4.40016937 96.40521717 C10.05563769 96.55079428 23.87961104 98.22607208 35.83054352 107.13422108 C36.67230133 107.75941639 37.51405914 108.3846117 38.38132477 109.02875233 C49.38115358 118.02557741 55.86871809 131.15407791 57.83054352 145.13422108 C57.98377279 148.12227373 57.99777033 151.10699797 58.00754547 154.09857655 C58.01411667 154.98083408 58.02068787 155.86309162 58.02745819 156.77208424 C58.04710827 159.68186006 58.05883937 162.5915843 58.06882477 165.50140858 C58.0729003 166.50196404 58.07697582 167.50251949 58.08117485 168.53339481 C58.1020069 173.83620716 58.11631731 179.13899391 58.12570953 184.44183826 C58.13672837 189.87938186 58.17108415 195.3165111 58.21088123 200.75390911 C58.23722105 204.9682429 58.24541698 209.18248086 58.24899101 213.39688969 C58.2538174 215.39885835 58.2653163 217.40082389 58.28402901 219.40271091 C58.45734974 239.18438173 56.22549238 256.42127563 42.08054352 271.50922108 C37.1622093 276.16594177 31.97154509 279.33355218 25.83054352 282.13422108 C25.16538727 282.45004139 24.50023102 282.7658617 23.81491852 283.09125233 C13.50419524 287.48847255 1.53721198 287.47003568 -9.48195648 287.75922108 C-10.71107758 287.79789295 -11.94019867 287.83656483 -13.20656586 287.87640858 C-16.19405902 287.96940447 -19.18156553 288.05524599 -22.16945648 288.13422108 C-22.21926569 293.64771713 -22.25536812 299.16107929 -22.27931976 304.67474842 C-22.28931542 306.54651645 -22.30291645 308.41826912 -22.32033539 310.2899828 C-22.34486916 312.99591354 -22.35600416 315.70163606 -22.36476898 318.40765858 C-22.37509155 319.23099689 -22.38541412 320.05433521 -22.3960495 320.90262318 C-22.39792686 330.84572639 -21.0589745 338.72927778 -14.16945648 346.13422108 C-8.17479711 351.97112626 -1.13005655 353.59428193 7.00571442 353.49498463 C7.78842476 353.4975479 8.57113511 353.50011118 9.37756395 353.50275213 C11.97864208 353.50766103 14.579129 353.49124551 17.18015289 353.47479725 C19.05323015 353.47395035 20.9263084 353.47442735 22.79938507 353.47612476 C27.86908544 353.47698368 32.93857183 353.45937457 38.00822258 353.43840289 C43.31198154 353.41961892 48.61574568 353.41788429 53.91953278 353.41432667 C63.95619867 353.40501127 73.99276625 353.38040428 84.0293889 353.3502782 C95.45860551 353.3167185 106.88782687 353.30024422 118.3170805 353.28519189 C141.82163519 353.2538543 165.32605516 353.19884848 188.83054352 353.13422108 C188.83054352 331.02422108 188.83054352 308.91422108 188.83054352 286.13422108 C179.42554352 283.65922108 179.42554352 283.65922108 169.83054352 281.13422108 C159.90572358 276.68264743 151.25389613 272.00108462 142.83054352 265.13422108 C141.97976227 264.44715076 141.12898102 263.76008045 140.25241852 263.05218983 C121.45741687 247.05337707 110.79738729 223.50123006 108.83054352 199.13422108 C107.17778927 171.86377595 116.32908307 146.79811096 134.32273102 126.29437733 C149.66878908 110.06034262 167.42885361 103.42883576 188.83054352 97.13422108 C188.83054352 75.02422108 188.83054352 52.91422108 188.83054352 30.13422108 C164.73459057 30.08905267 140.63867197 30.05221932 116.54268742 30.03059673 C105.35420019 30.0202896 94.16574116 30.00623998 82.97727203 29.98334217 C73.22400437 29.96339111 63.47075713 29.95050055 53.71746963 29.94604409 C48.55447259 29.94343963 43.39153397 29.93732964 38.22855568 29.92276096 C33.36540915 29.90914998 28.50234491 29.90500555 23.63918114 29.90800571 C21.85785601 29.90745713 20.07652803 29.90350069 18.29521942 29.89581013 C0.28958353 29.6838245 0.28958353 29.6838245 -15.16945648 38.13422108 Z M218.83054352 30.13422108 C218.83054352 52.24422108 218.83054352 74.35422108 218.83054352 97.13422108 C228.73054352 100.10422108 228.73054352 100.10422108 238.83054352 103.13422108 C263.68576762 114.28252012 282.49229795 131.44857112 292.62693024 156.91766834 C294.99080708 163.19180948 296.66595169 169.52865624 297.83054352 176.13422108 C298.05741852 177.41297108 298.28429352 178.69172108 298.51804352 180.00922108 C301.24301249 207.03183007 293.62893862 233.03990363 276.48679352 254.06781483 C261.0108227 272.31466719 241.7452792 280.40553716 218.83054352 286.13422108 C218.83054352 308.24422108 218.83054352 330.35422108 218.83054352 353.13422108 C243.43076367 353.22457363 268.03084913 353.29823359 292.63119316 353.34146976 C304.05398633 353.36208015 315.47666896 353.39017174 326.89939117 353.43597889 C336.85739391 353.47589316 346.81531657 353.50166496 356.77339709 353.51057506 C362.04437146 353.515782 367.31511677 353.52798865 372.58601761 353.5571413 C377.55182749 353.58438284 382.51731494 353.5926484 387.48319244 353.5866518 C389.30119964 353.58774813 391.11921813 353.59564976 392.93716049 353.61104298 C408.19557233 353.79302481 408.19557233 353.79302481 421.48679352 346.95062733 C422.39944977 345.83494373 422.39944977 345.83494373 423.33054352 344.69672108 C424.27413727 343.58490467 424.27413727 343.58490467 425.23679352 342.45062733 C430.162493 335.29146117 429.97973997 327.07704205 429.92819977 318.70062733 C429.92678482 317.82269016 429.92536987 316.944753 429.92391205 316.04021168 C429.91835172 313.25901226 429.90580672 310.47789582 429.89304352 307.69672108 C429.88802339 305.80153995 429.88346138 303.90635756 429.87937164 302.0111742 C429.86839532 297.38549159 429.85115834 292.75987036 429.83054352 288.13422108 C429.08071198 288.11440174 428.33088043 288.09458241 427.55832672 288.07416248 C424.08627526 287.97757579 420.61471937 287.86845052 417.14304352 287.75922108 C415.96419586 287.72828358 414.78534821 287.69734608 413.57077789 287.66547108 C393.57246584 287.00799232 376.88741461 283.38370306 362.70944977 268.40375233 C350.02889174 253.08690365 349.21497482 235.58970718 349.33444977 216.64984608 C349.33429434 214.61637794 349.33279806 212.58290952 349.33003998 210.54944324 C349.32866577 206.31698757 349.34105298 202.08487481 349.36399078 197.8524828 C349.39244531 192.4574428 349.38960493 187.06296811 349.37690067 181.66788578 C349.36991275 177.47942838 349.37776702 173.29109927 349.3901577 169.10265827 C349.39463684 167.11416333 349.39504037 165.12565446 349.3910923 163.13715839 C349.37051332 143.66859459 352.0850567 125.95053186 366.26804352 111.38422108 C380.42575558 98.95305927 396.12639327 96.55682667 414.26804352 96.38422108 C415.78956023 96.35596364 417.31104664 96.32602323 418.83249664 96.29437733 C422.49837003 96.22169241 426.16411739 96.17142089 429.83054352 96.13422108 C429.88028048 90.45999879 429.91642172 84.78590569 429.9404068 79.111516 C429.95041438 77.18441015 429.96402462 75.2573193 429.98142242 73.330266 C430.00590272 70.54743195 430.0170793 67.76480007 430.02585602 64.98187733 C430.03617859 64.13150394 430.04650116 63.28113056 430.05713654 62.40498829 C430.05893212 52.65607564 428.37922536 44.61220588 421.83054352 37.13422108 C411.9786475 28.60973842 398.95049221 29.85442977 386.73459625 29.9071703 C384.90077979 29.90773505 383.06696287 29.9074166 381.23314667 29.90628529 C376.27512005 29.90571328 371.31719092 29.91744291 366.35918689 29.9314332 C361.1702059 29.94396598 355.98122249 29.94511307 350.7922287 29.94748402 C340.97520082 29.9536913 331.15821768 29.97009195 321.34120947 29.990183 C310.16105046 30.01256539 298.98088927 30.02354131 287.80071342 30.03357387 C264.8106263 30.05445885 241.82060047 30.0911257 218.83054352 30.13422108 Z M-22.16945648 127.13422108 C-22.16945648 170.03422108 -22.16945648 212.93422108 -22.16945648 257.13422108 C3.78686438 258.58074419 3.78686438 258.58074419 23.14304352 246.82172108 C27.15696333 240.42918212 28.27831866 233.79579316 28.21872711 226.36078358 C28.22398407 225.5351189 28.22924103 224.70945423 28.23465729 223.85876942 C28.24774482 221.15872133 28.23915951 218.45927403 28.22898102 215.75922108 C28.23100499 213.86550249 28.23391911 211.97178467 28.23767853 210.07806873 C28.24208666 206.12079879 28.23571967 202.16373282 28.2216568 198.2064867 C28.20456588 193.15286487 28.21441519 188.09972115 28.23237419 183.04611683 C28.24325297 179.13914912 28.23974695 175.23229337 28.23199081 171.32532215 C28.23000011 169.46273205 28.23240805 167.60013153 28.23942947 165.7375536 C28.24711171 163.12731753 28.23534597 160.51783874 28.21872711 157.90765858 C28.2247998 157.14999195 28.2308725 156.39232533 28.23712921 155.6116991 C28.13850545 147.18289019 25.60454749 139.39754742 19.83054352 133.13422108 C7.18916402 123.18249679 -5.14164364 127.13422108 -22.16945648 127.13422108 Z M388.08054352 132.82172108 C381.0882689 140.00822554 379.68748633 147.71514095 379.65354156 157.42181873 C379.64697037 158.24368671 379.64039917 159.0655547 379.63362885 159.91232777 C379.61396761 162.6243141 379.60224776 165.33624518 379.59226227 168.04828358 C379.58818674 168.97876892 379.58411121 169.90925426 379.57991219 170.86793613 C379.55907957 175.79539992 379.54476708 180.72283611 379.5353775 185.65033436 C379.5243336 190.71735994 379.48994887 195.78394393 379.4502058 200.85081387 C379.42394901 204.76642086 379.41567753 208.68192416 379.41209602 212.59761143 C379.40725158 214.46416034 379.39569937 216.33070529 379.37705803 218.1971674 C379.06055814 234.50019088 379.06055814 234.50019088 386.01413727 248.88812733 C387.12982086 249.78338123 387.12982086 249.78338123 388.26804352 250.69672108 C389.00925446 251.31676014 389.75046539 251.9367992 390.51413727 252.57562733 C401.83125842 260.19035134 417.2860869 257.13422108 429.83054352 257.13422108 C429.83054352 214.23422108 429.83054352 171.33422108 429.83054352 127.13422108 C405.72348273 125.35987413 405.72348273 125.35987413 388.08054352 132.82172108 Z M218.83054352 129.13422108 C218.83054352 170.71422108 218.83054352 212.29422108 218.83054352 255.13422108 C227.32664837 252.30218613 233.63111731 249.9380194 240.83054352 245.13422108 C241.46734039 244.73332264 242.10413727 244.3324242 242.76023102 243.91937733 C254.84405349 235.9440545 264.33681989 220.67346017 267.45163727 206.61468983 C270.41408808 187.22132627 267.53950631 169.09633501 255.91257477 152.81000233 C247.0992324 141.48328653 234.80308387 132.83435676 220.83054352 129.13422108 C220.17054352 129.13422108 219.51054352 129.13422108 218.83054352 129.13422108 Z M156.45554352 147.00922108 C144.6503278 159.63458862 138.38757395 176.77387132 138.85422516 194.01093006 C139.72528768 211.72813191 146.5247377 225.59299984 158.83054352 238.13422108 C159.62202789 238.97082264 160.41351227 239.8074242 161.22898102 240.66937733 C163.96360174 243.26028675 166.69794328 245.20522737 169.89304352 247.19672108 C170.91527008 247.84769764 171.93749664 248.4986742 172.99069977 249.16937733 C178.01325238 251.73941188 183.47816077 253.35009349 188.83054352 255.13422108 C188.83054352 213.55422108 188.83054352 171.97422108 188.83054352 129.13422108 C177.25860795 129.13422108 164.44080698 139.51630526 156.45554352 147.00922108 Z " fill="#fff" transform="translate(52.169456481933594,63.86577892303467)"/>
</svg>
